<svg width="128" height="128" viewBox="0 0 128 128" fill="none" xmlns="http://www.w3.org/2000/svg">
<g clip-path="url(#clip0)">
<path d="M112.37 78.4399L85.46 87.6599V99.3299L112.37 110.09V78.4399Z" fill="#1A6CA2"/>
<path d="M28.34 116.64C24.93 116.64 22.16 113.87 22.16 110.46V60.0899C22.16 56.6799 24.93 53.9099 28.34 53.9099H88.94C92.35 53.9099 95.12 56.6799 95.12 60.0899V110.46C95.12 113.87 92.35 116.64 88.94 116.64H28.34V116.64Z" fill="#40C0E7"/>
<path d="M116.28 75.5801C118.52 75.5801 120.34 77.4001 120.34 79.6401V108.89C120.34 111.13 118.52 112.95 116.28 112.95C114.04 112.95 112.22 111.13 112.22 108.89V79.6401C112.22 77.4001 114.04 75.5801 116.28 75.5801Z" fill="#1A6CA2"/>
<path d="M80.93 121H36.35C35.3581 121 34.4068 120.606 33.7054 119.905C33.004 119.203 32.61 118.252 32.61 117.26C32.61 116.268 33.004 115.317 33.7054 114.615C34.4068 113.914 35.3581 113.52 36.35 113.52H80.94C81.9319 113.52 82.8832 113.914 83.5846 114.615C84.286 115.317 84.68 116.268 84.68 117.26C84.6773 118.253 84.2811 119.204 83.5781 119.905C82.8751 120.606 81.9228 121 80.93 121V121Z" fill="#1A6CA2"/>
<path d="M21.48 67.53H58.75C62.89 67.53 66.24 70.88 66.24 75.02V94.66C66.24 98.8 62.89 102.15 58.75 102.15H21.48C17.34 102.15 13.99 98.8 13.99 94.66V75.02C13.99 70.88 17.34 67.53 21.48 67.53Z" fill="#1A6CA2"/>
<path d="M79.7399 74.6101H88.6999C92.2399 74.6101 95.1199 77.2401 95.1199 80.4901V110.77C95.1199 114.02 92.2499 116.65 88.6999 116.65H79.7399C76.1999 116.65 73.3199 114.02 73.3199 110.77V80.4901C73.3199 77.2401 76.1899 74.6101 79.7399 74.6101V74.6101Z" fill="#1A6CA2"/>
<path d="M84.06 108.18C85.8052 108.18 87.22 106.765 87.22 105.02C87.22 103.275 85.8052 101.86 84.06 101.86C82.3148 101.86 80.9 103.275 80.9 105.02C80.9 106.765 82.3148 108.18 84.06 108.18Z" fill="#ED6C30"/>
<path d="M84.06 97.6999C85.8052 97.6999 87.22 96.2851 87.22 94.5399C87.22 92.7947 85.8052 91.3799 84.06 91.3799C82.3148 91.3799 80.9 92.7947 80.9 94.5399C80.9 96.2851 82.3148 97.6999 84.06 97.6999Z" fill="#40C0E7"/>
<path d="M94.5 8.12012C76.83 8.12012 62.5 22.4501 62.5 40.1201C62.5 57.7901 76.83 72.1201 94.5 72.1201C112.17 72.1201 126.5 57.7901 126.5 40.1201C126.5 22.4501 112.17 8.12012 94.5 8.12012V8.12012ZM94.5 64.5301C81.01 64.5301 70.08 53.6001 70.08 40.1101C70.08 26.6201 81.02 15.7001 94.5 15.7001C107.98 15.7001 118.92 26.6301 118.92 40.1201C118.92 53.6101 107.99 64.5301 94.5 64.5301Z" fill="#1A6CA2"/>
<path d="M94.5 64.5299C107.987 64.5299 118.92 53.5967 118.92 40.1099C118.92 26.6231 107.987 15.6899 94.5 15.6899C81.0132 15.6899 70.08 26.6231 70.08 40.1099C70.08 53.5967 81.0132 64.5299 94.5 64.5299Z" fill="white"/>
<path d="M94.5 29.0701C88.4 29.0701 83.45 34.0201 83.45 40.1201C83.45 46.2201 88.4 51.1601 94.5 51.1601C100.6 51.1601 105.55 46.2101 105.55 40.1101C105.55 34.0101 100.6 29.0701 94.5 29.0701ZM94.5 45.0501C91.78 45.0501 89.57 42.8401 89.57 40.1201C89.57 37.4001 91.78 35.1901 94.5 35.1901C97.22 35.1901 99.43 37.4001 99.43 40.1201C99.43 42.8401 97.23 45.0501 94.5 45.0501Z" fill="#1A6CA2"/>
<path d="M94.4999 45.0399C97.2227 45.0399 99.4299 42.8327 99.4299 40.1099C99.4299 37.3872 97.2227 35.1799 94.4999 35.1799C91.7772 35.1799 89.5699 37.3872 89.5699 40.1099C89.5699 42.8327 91.7772 45.0399 94.4999 45.0399Z" fill="white"/>
<path d="M89.5699 12.3501L92.6699 32.0801H96.6199L99.4399 12.3501H89.5699Z" fill="#1A6CA2"/>
<path d="M119.33 26.78L101.57 35.93L102.81 39.67L122.43 36.15L119.33 26.78Z" fill="#1A6CA2"/>
<path d="M114.84 59.7101L100.67 45.6201L97.49 47.9601L106.88 65.5401L114.84 59.7101Z" fill="#1A6CA2"/>
<path d="M82.1 65.5499L91.16 47.7499L87.97 45.4399L74.11 59.7599L82.1 65.5499Z" fill="#1A6CA2"/>
<path d="M66.49 36.2501L86.22 39.3701L87.43 35.6201L69.53 26.8601L66.49 36.2501Z" fill="#1A6CA2"/>
<path d="M27.15 25.3C12.87 25.3 1.29004 36.88 1.29004 51.16C1.29004 65.44 12.87 77.02 27.15 77.02C41.43 77.02 53.01 65.44 53.01 51.16C53.01 36.88 41.44 25.3 27.15 25.3ZM27.15 70.9001C16.25 70.9001 7.41004 62.06 7.41004 51.16C7.41004 40.26 16.25 31.42 27.15 31.42C38.05 31.42 46.89 40.26 46.89 51.16C46.89 62.06 38.05 70.9001 27.15 70.9001Z" fill="#1A6CA2"/>
<path d="M27.15 70.9002C38.0521 70.9002 46.89 62.0623 46.89 51.1602C46.89 40.2581 38.0521 31.4202 27.15 31.4202C16.2479 31.4202 7.41003 40.2581 7.41003 51.1602C7.41003 62.0623 16.2479 70.9002 27.15 70.9002Z" fill="white"/>
<path d="M27.1501 42.23C22.2201 42.23 18.2201 46.23 18.2201 51.16C18.2201 56.09 22.2201 60.09 27.1501 60.09C32.0801 60.09 36.0801 56.09 36.0801 51.16C36.0801 46.23 32.0901 42.23 27.1501 42.23ZM27.1501 55.15C24.9501 55.15 23.1601 53.36 23.1601 51.16C23.1601 48.96 24.9501 47.17 27.1501 47.17C29.3501 47.17 31.1401 48.96 31.1401 51.16C31.1401 53.36 29.3601 55.15 27.1501 55.15Z" fill="#1A6CA2"/>
<path d="M27.15 55.1502C29.3537 55.1502 31.14 53.3638 31.14 51.1602C31.14 48.9566 29.3537 47.1702 27.15 47.1702C24.9464 47.1702 23.16 48.9566 23.16 51.1602C23.16 53.3638 24.9464 55.1502 27.15 55.1502Z" fill="white"/>
<path d="M23.17 28.72L25.67 44.67H28.86L31.14 28.72H23.17Z" fill="#1A6CA2"/>
<path d="M47.22 40.3801L32.86 47.7801L33.87 50.8001L49.72 47.9601L47.22 40.3801Z" fill="#1A6CA2"/>
<path d="M43.5901 67.0001L32.1401 55.6101L29.5701 57.5001L37.1601 71.7101L43.5901 67.0001Z" fill="#1A6CA2"/>
<path d="M17.13 71.72L24.45 57.33L21.87 55.46L10.67 67.04L17.13 71.72Z" fill="#1A6CA2"/>
<path d="M4.51001 48.04L20.46 50.56L21.44 47.5299L6.97001 40.45L4.51001 48.04Z" fill="#1A6CA2"/>
</g>
<defs>
<clipPath id="clip0">
<rect width="128" height="128" fill="white"/>
</clipPath>
</defs>
</svg>
